<svg width="1427" height="156" viewBox="0 0 1427 156" fill="none" xmlns="http://www.w3.org/2000/svg">
<path d="M0 155.054V1.71094H36.3574C48.6904 1.71094 57.7085 4.59814 63.4116 10.3726C69.186 16.147 72.0732 25.0225 72.0732 36.999V42.4526C72.0732 58.1362 66.8691 68.4375 56.4609 73.3564C68.4375 77.9902 74.4258 88.9331 74.4258 106.185V118.696C74.4258 130.53 71.3247 139.548 65.1226 145.75C58.9204 151.953 49.8311 155.054 37.8545 155.054H0ZM24.0601 133.132H37.8545C42.0605 133.132 45.1973 131.992 47.2646 129.71C49.332 127.429 50.3657 123.544 50.3657 118.055V104.688C50.3657 97.7017 49.1538 92.854 46.73 90.145C44.3774 87.436 40.4209 86.0815 34.8604 86.0815H24.0601V133.132ZM24.0601 64.1602H33.4702C38.2466 64.1602 41.8467 62.9482 44.2705 60.5244C46.6943 58.0293 47.9062 53.8589 47.9062 48.0132V39.4585C47.9062 33.9692 46.9438 29.9771 45.019 27.4819C43.0942 24.9155 39.9932 23.6323 35.7158 23.6323H24.0601V64.1602ZM82.6597 155.054L107.147 1.71094H142.436L166.923 155.054H142.649L138.479 127.251H108.858L104.688 155.054H82.6597ZM111.959 106.399H135.164L123.615 28.8721L111.959 106.399ZM178.151 155.054V1.71094H214.509C226.842 1.71094 235.86 4.59814 241.563 10.3726C247.337 16.147 250.225 25.0225 250.225 36.999V42.4526C250.225 58.1362 245.021 68.4375 234.612 73.3564C246.589 77.9902 252.577 88.9331 252.577 106.185V118.696C252.577 130.53 249.476 139.548 243.274 145.75C237.072 151.953 227.982 155.054 216.006 155.054H178.151ZM202.211 133.132H216.006C220.212 133.132 223.349 131.992 225.416 129.71C227.483 127.429 228.517 123.544 228.517 118.055V104.688C228.517 97.7017 227.305 92.854 224.881 90.145C222.529 87.436 218.572 86.0815 213.012 86.0815H202.211V133.132ZM202.211 64.1602H211.622C216.398 64.1602 219.998 62.9482 222.422 60.5244C224.846 58.0293 226.058 53.8589 226.058 48.0132V39.4585C226.058 33.9692 225.095 29.9771 223.17 27.4819C221.246 24.9155 218.145 23.6323 213.867 23.6323H202.211V64.1602ZM266.051 118.482V1.71094H290.111V119.979C290.111 129.96 294.281 134.95 302.622 134.95C310.892 134.95 315.026 129.96 315.026 119.979V1.71094H337.803V118.482C337.803 130.815 334.738 140.333 328.607 147.034C322.547 153.664 313.672 156.979 301.98 156.979C290.289 156.979 281.378 153.664 275.247 147.034C269.116 140.333 266.051 130.815 266.051 118.482ZM350.635 118.269V108.858H373.412V119.766C373.412 129.746 377.583 134.736 385.923 134.736C394.264 134.736 398.435 129.746 398.435 119.766C398.435 115.488 397.543 111.46 395.761 107.682C394.05 103.904 391.805 100.518 389.024 97.5234C386.315 94.458 383.286 91.4282 379.935 88.4341C376.584 85.3687 373.198 82.1963 369.776 78.917C366.426 75.5664 363.36 72.0376 360.58 68.3306C357.871 64.6235 355.625 60.2036 353.843 55.0708C352.132 49.938 351.277 44.4131 351.277 38.4961C351.277 26.1631 354.271 16.6816 360.259 10.0518C366.319 3.35059 375.159 0 386.779 0C398.399 0 407.203 3.35059 413.191 10.0518C419.251 16.6816 422.281 26.1631 422.281 38.4961V43.415H399.504V36.999C399.504 26.9473 395.476 21.9214 387.42 21.9214C383.428 21.9214 380.434 23.1333 378.438 25.5571C376.442 27.9097 375.444 31.7236 375.444 36.999C375.444 41.2764 376.299 45.3042 378.01 49.0825C379.792 52.8608 382.038 56.2827 384.747 59.3481C387.527 62.3423 390.593 65.3721 393.943 68.4375C397.294 71.4316 400.645 74.604 403.995 77.9546C407.346 81.2339 410.375 84.7271 413.084 88.4341C415.865 92.1411 418.11 96.561 419.821 101.694C421.604 106.827 422.495 112.352 422.495 118.269C422.495 130.602 419.429 140.119 413.298 146.82C407.167 153.45 398.256 156.765 386.565 156.765C374.874 156.765 365.962 153.45 359.832 146.82C353.701 140.119 350.635 130.602 350.635 118.269ZM436.289 155.054V1.71094H460.349V67.4751H487.724V1.71094H512.319V155.054H487.724V89.3965H460.349V155.054H436.289ZM529.749 155.054V1.71094H553.809V68.5444L585.354 1.71094H609.415L575.944 70.0415L609.415 155.054H584.713L561.294 93.9946L553.809 108.003V155.054H529.749ZM614.12 155.054L638.607 1.71094H673.896L698.383 155.054H674.109L669.939 127.251H640.318L636.148 155.054H614.12ZM643.419 106.399H666.624L655.075 28.8721L643.419 106.399ZM743.616 155.054V1.71094H809.273V23.6323H767.676V66.4058H800.719V88.2202H767.676V133.132H809.273V155.054H743.616ZM818.791 155.054L845.738 76.2437L820.501 1.71094H845.524L863.703 58.2788L882.309 1.71094H904.658L879.422 76.2437L906.369 155.054H880.919L861.243 94.4224L841.354 155.054H818.791ZM912.892 118.269V38.4961C912.892 26.1631 915.958 16.6816 922.088 10.0518C928.219 3.35059 937.13 0 948.822 0C960.513 0 969.424 3.35059 975.555 10.0518C981.686 16.6816 984.751 26.1631 984.751 38.4961V53.4668H961.975V36.999C961.975 26.9473 957.84 21.9214 949.57 21.9214C941.229 21.9214 937.059 26.9473 937.059 36.999V119.766C937.059 129.746 941.229 134.736 949.57 134.736C957.84 134.736 961.975 129.746 961.975 119.766V97.8442H984.751V118.269C984.751 130.602 981.686 140.119 975.555 146.82C969.424 153.45 960.513 156.765 948.822 156.765C937.13 156.765 928.219 153.45 922.088 146.82C915.958 140.119 912.892 130.602 912.892 118.269ZM999.401 155.054V1.71094H1023.46V67.4751H1050.84V1.71094H1075.43V155.054H1050.84V89.3965H1023.46V155.054H999.401ZM1086.55 155.054L1111.04 1.71094H1146.33L1170.82 155.054H1146.54L1142.37 127.251H1112.75L1108.58 155.054H1086.55ZM1115.85 106.399H1139.06L1127.51 28.8721L1115.85 106.399ZM1181.83 155.054V1.71094H1211.99L1236.79 93.5669V1.71094H1258.29V155.054H1233.48L1203.54 44.0566V155.054H1181.83ZM1273.47 118.269V38.4961C1273.47 26.1631 1276.54 16.6816 1282.67 10.0518C1288.8 3.35059 1297.71 0 1309.4 0C1321.09 0 1330 3.35059 1336.14 10.0518C1342.27 16.6816 1345.33 26.1631 1345.33 38.4961V53.4668H1322.55V36.999C1322.55 26.9473 1318.42 21.9214 1310.15 21.9214C1301.81 21.9214 1297.64 26.9473 1297.64 36.999V119.766C1297.64 129.746 1301.81 134.736 1310.15 134.736C1318.42 134.736 1322.55 129.746 1322.55 119.766V91.5352H1311.65V69.6138H1345.33V118.269C1345.33 130.602 1342.27 140.119 1336.14 146.82C1330 153.45 1321.09 156.765 1309.4 156.765C1297.71 156.765 1288.8 153.45 1282.67 146.82C1276.54 140.119 1273.47 130.602 1273.47 118.269ZM1360.84 155.054V1.71094H1426.49V23.6323H1384.9V66.4058H1417.94V88.2202H1384.9V133.132H1426.49V155.054H1360.84Z" fill="url(#paint0_linear_5341_738)"/>
<defs>
<linearGradient id="paint0_linear_5341_738" x1="-9.03613" y1="100.554" x2="1432.96" y2="100.554" gradientUnits="userSpaceOnUse">
<stop stop-color="#E39800"/>
<stop offset="1" stop-color="#FFFB00"/>
</linearGradient>
</defs>
</svg>
