<svg width="20" height="20" viewBox="0 0 20 20" fill="none" xmlns="http://www.w3.org/2000/svg">
<g clip-path="url(#clip0_5343_337)">
<path d="M19.6353 17.871L15.7644 13.9984C18.6608 10.1278 17.871 4.64195 14.0004 1.74551C10.1297 -1.15092 4.6439 -0.361157 1.74747 3.50949C-1.14897 7.38013 -0.359203 12.866 3.51144 15.7624C6.62066 18.0891 10.8911 18.0891 14.0004 15.7624L17.873 19.635C18.3596 20.1216 19.1487 20.1216 19.6353 19.635C20.1219 19.1483 20.1219 18.3593 19.6353 17.8727L19.6353 17.871ZM8.78818 15.015C5.34814 15.015 2.55946 12.2263 2.55946 8.78623C2.55946 5.34618 5.34814 2.55751 8.78818 2.55751C12.2282 2.55751 15.0169 5.34618 15.0169 8.78623C15.0132 12.2247 12.2267 15.0113 8.78818 15.015Z" fill="#141414"/>
</g>
<defs>
<clipPath id="clip0_5343_337">
<rect width="20" height="20" fill="white"/>
</clipPath>
</defs>
</svg>
