<svg width="20" height="20" viewBox="0 0 20 20" fill="none" xmlns="http://www.w3.org/2000/svg">
<path d="M19.1662 13.3334H2.23365L2.24532 13.3209L4.11532 11.4168C4.19714 11.3399 4.26259 11.2473 4.30773 11.1445C4.35287 11.0417 4.37678 10.9308 4.37801 10.8186C4.37925 10.7063 4.35779 10.595 4.31492 10.4912C4.27205 10.3874 4.20865 10.2934 4.12854 10.2148C4.04843 10.1361 3.95325 10.0745 3.84872 10.0335C3.74418 9.99254 3.63246 9.97313 3.52024 9.97643C3.40802 9.97973 3.29762 10.0057 3.19568 10.0527C3.09373 10.0997 3.00234 10.1669 2.92699 10.2501L1.06115 12.1476C0.92532 12.2834 0.73532 12.4918 0.541153 12.7109C0.192471 13.1052 0 13.6133 0 14.1397C0 14.666 0.192471 15.1742 0.541153 15.5684C0.73532 15.7868 0.92532 15.9951 1.05615 16.1268L2.92699 18.0301C3.08382 18.1774 3.29157 18.2584 3.50674 18.256C3.72191 18.2537 3.92783 18.1681 4.08139 18.0174C4.23494 17.8666 4.32422 17.6623 4.33055 17.4472C4.33687 17.2321 4.25975 17.0229 4.11532 16.8634L2.28615 15.0001H19.1662C19.3872 15.0001 19.5991 14.9123 19.7554 14.756C19.9117 14.5997 19.9995 14.3878 19.9995 14.1668C19.9995 13.9457 19.9117 13.7338 19.7554 13.5775C19.5991 13.4212 19.3872 13.3334 19.1662 13.3334Z" fill="#141414"/>
<path d="M0.833333 6.66666H17.7125L15.8842 8.52749C15.8023 8.60436 15.7369 8.69697 15.6918 8.79977C15.6466 8.90256 15.6227 9.01341 15.6215 9.12568C15.6202 9.23794 15.6417 9.34929 15.6846 9.45305C15.7274 9.55681 15.7908 9.65084 15.8709 9.72949C15.9511 9.80814 16.0462 9.8698 16.1508 9.91075C16.2553 9.9517 16.367 9.97111 16.4793 9.96781C16.5915 9.96451 16.7019 9.93857 16.8038 9.89155C16.9058 9.84452 16.9971 9.77738 17.0725 9.69416L18.9383 7.79499C19.0742 7.65916 19.2642 7.45082 19.4583 7.23249C19.807 6.83823 19.9995 6.33007 19.9995 5.80374C19.9995 5.27741 19.807 4.76925 19.4583 4.37499C19.2642 4.15583 19.0742 3.94749 18.9433 3.81666L17.0725 1.91666C16.9157 1.76932 16.7079 1.68836 16.4927 1.69072C16.2776 1.69309 16.0717 1.7786 15.9181 1.92936C15.7645 2.08011 15.6753 2.28442 15.6689 2.49951C15.6626 2.71461 15.7397 2.92381 15.8842 3.08333L17.76 4.99166L17.7667 4.99999H0.833333C0.61232 4.99999 0.400358 5.08779 0.244078 5.24407C0.0877974 5.40035 0 5.61231 0 5.83332C0 6.05434 0.0877974 6.2663 0.244078 6.42258C0.400358 6.57886 0.61232 6.66666 0.833333 6.66666Z" fill="black"/>
</svg>
